# MagicaVoxel @ Ephtracy

# group
o 

# material
mtllib Sheep.mtl
usemtl palette

# normals
vn -1 0 0
vn 1 0 0
vn 0 0 1
vn 0 0 -1
vn 0 -1 0
vn 0 1 0

# texcoords
vt 0.103516 0.5
vt 0.126953 0.5
vt 0.865234 0.5
vt 0.958984 0.5
vt 0.994141 0.5

# verts
v -0.8 2.2 0.1
v -0.8 2.2 0
v -0.8 2.4 0.1
v -0.8 2.4 0
v -0.6 1.1 0.5
v -0.6 1.1 0.3
v -0.6 1.1 -0.5
v -0.6 1.1 -0.7
v -0.6 1.2 0.5
v -0.6 1.2 0.3
v -0.6 1.2 -0.5
v -0.6 1.2 -0.7
v -0.6 1.4 0.3
v -0.6 1.4 -0.5
v -0.6 1.9 0.7
v -0.6 1.9 0.5
v -0.6 1.9 0.1
v -0.6 2.1 0.4
v -0.6 2.1 0.2
v -0.6 2.2 0.3
v -0.6 2.2 0.2
v -0.6 2.2 0.1
v -0.6 2.2 0
v -0.6 2.2 -0.7
v -0.6 2.3 0.4
v -0.6 2.3 0.3
v -0.6 2.3 0.2
v -0.6 2.4 0.7
v -0.6 2.4 0.1
v -0.5 2.4 0.6
v -0.5 2.4 0.1
v -0.5 2.5 0.6
v -0.5 2.5 0.1
v -0.3 2 -0.7
v -0.3 2 -0.9
v -0.3 2.2 -0.7
v -0.3 2.3 -0.7
v -0.3 2.3 -0.9
v 0.1 1.1 0.5
v 0.1 1.1 0.3
v 0.1 1.1 -0.5
v 0.1 1.1 -0.7
v 0.1 1.2 0.5
v 0.1 1.2 0.3
v 0.1 1.2 -0.5
v 0.1 1.2 -0.7
v 0.1 1.4 0.5
v 0.1 1.4 0.3
v 0.1 1.4 -0.5
v 0.1 1.4 -0.7
v -0.4 1.1 0.5
v -0.4 1.1 0.3
v -0.4 1.1 -0.5
v -0.4 1.1 -0.7
v -0.4 1.2 0.5
v -0.4 1.2 0.3
v -0.4 1.2 -0.5
v -0.4 1.2 -0.7
v -0.4 1.4 0.5
v -0.4 1.4 0.3
v -0.4 1.4 -0.5
v -0.4 1.4 -0.7
v 5.96046e-08 2 -0.7
v 5.96046e-08 2 -0.9
v 5.96046e-08 2.2 -0.7
v 5.96046e-08 2.3 -0.7
v 5.96046e-08 2.3 -0.9
v 0.2 2.4 0.6
v 0.2 2.4 0.1
v 0.2 2.5 0.6
v 0.2 2.5 0.1
v 0.3 1.1 0.5
v 0.3 1.1 0.3
v 0.3 1.1 -0.5
v 0.3 1.1 -0.7
v 0.3 1.2 0.5
v 0.3 1.2 0.3
v 0.3 1.2 -0.5
v 0.3 1.2 -0.7
v 0.3 1.4 0.3
v 0.3 1.4 -0.5
v 0.3 1.9 0.7
v 0.3 1.9 0.5
v 0.3 1.9 0.1
v 0.3 2.1 0.4
v 0.3 2.1 0.2
v 0.3 2.2 0.3
v 0.3 2.2 0.2
v 0.3 2.2 0.1
v 0.3 2.2 0
v 0.3 2.2 -0.7
v 0.3 2.3 0.4
v 0.3 2.3 0.3
v 0.3 2.3 0.2
v 0.3 2.4 0.7
v 0.3 2.4 0.1
v 0.5 2.2 0.1
v 0.5 2.2 0
v 0.5 2.4 0.1
v 0.5 2.4 0
v -0.6 1.9 0.7
v -0.6 2.4 0.7
v -0.5 2 0.7
v -0.5 2.3 0.7
v -0.4 2 0.7
v -0.4 2.3 0.7
v -0.3 2 0.7
v -0.3 2.3 0.7
v 5.96046e-08 2 0.7
v 5.96046e-08 2.3 0.7
v 0.1 2 0.7
v 0.1 2.3 0.7
v 0.2 2 0.7
v 0.2 2.3 0.7
v 0.3 1.9 0.7
v 0.3 2.4 0.7
v -0.5 2.4 0.6
v -0.5 2.5 0.6
v 0.2 2.4 0.6
v 0.2 2.5 0.6
v -0.6 1.1 0.5
v -0.6 1.2 0.5
v -0.6 1.9 0.5
v -0.4 1.1 0.5
v -0.4 1.2 0.5
v -0.4 1.4 0.5
v 0.1 1.1 0.5
v 0.1 1.2 0.5
v 0.1 1.4 0.5
v 0.3 1.1 0.5
v 0.3 1.2 0.5
v 0.3 1.9 0.5
v -0.8 2.2 0.1
v -0.8 2.4 0.1
v -0.6 2.2 0.1
v -0.6 2.4 0.1
v 0.3 2.2 0.1
v 0.3 2.4 0.1
v 0.5 2.2 0.1
v 0.5 2.4 0.1
v -0.6 1.1 -0.5
v -0.6 1.2 -0.5
v -0.6 1.4 -0.5
v -0.4 1.1 -0.5
v -0.4 1.2 -0.5
v -0.4 1.4 -0.5
v 0.1 1.1 -0.5
v 0.1 1.2 -0.5
v 0.1 1.4 -0.5
v 0.3 1.1 -0.5
v 0.3 1.2 -0.5
v 0.3 1.4 -0.5
v -0.3 2.2 -0.7
v -0.3 2.3 -0.7
v 5.96046e-08 2.2 -0.7
v 5.96046e-08 2.3 -0.7
v -0.6 1.1 0.3
v -0.6 1.2 0.3
v -0.6 1.4 0.3
v -0.4 1.1 0.3
v -0.4 1.2 0.3
v -0.4 1.4 0.3
v 0.1 1.1 0.3
v 0.1 1.2 0.3
v 0.1 1.4 0.3
v 0.3 1.1 0.3
v 0.3 1.2 0.3
v 0.3 1.4 0.3
v -0.5 2.4 0.1
v -0.5 2.5 0.1
v 0.2 2.4 0.1
v 0.2 2.5 0.1
v -0.8 2.2 0
v -0.8 2.4 0
v -0.6 2.2 0
v -0.5 2.2 0
v -0.5 2.4 0
v 0.2 2.2 0
v 0.2 2.4 0
v 0.3 2.2 0
v 0.5 2.2 0
v 0.5 2.4 0
v -0.6 1.1 -0.7
v -0.6 1.2 -0.7
v -0.6 2.2 -0.7
v -0.4 1.1 -0.7
v -0.4 1.2 -0.7
v -0.4 1.4 -0.7
v -0.3 2 -0.7
v -0.3 2.2 -0.7
v 5.96046e-08 2 -0.7
v 5.96046e-08 2.2 -0.7
v 0.1 1.1 -0.7
v 0.1 1.2 -0.7
v 0.1 1.4 -0.7
v 0.3 1.1 -0.7
v 0.3 1.2 -0.7
v 0.3 2.2 -0.7
v -0.3 2 -0.9
v -0.3 2.3 -0.9
v 5.96046e-08 2 -0.9
v 5.96046e-08 2.3 -0.9
v -0.6 1.1 0.5
v -0.4 1.1 0.5
v 0.1 1.1 0.5
v 0.3 1.1 0.5
v -0.6 1.1 0.3
v -0.4 1.1 0.3
v 0.1 1.1 0.3
v 0.3 1.1 0.3
v -0.6 1.1 -0.5
v -0.4 1.1 -0.5
v 0.1 1.1 -0.5
v 0.3 1.1 -0.5
v -0.6 1.1 -0.7
v -0.4 1.1 -0.7
v 0.1 1.1 -0.7
v 0.3 1.1 -0.7
v -0.4 1.4 0.5
v 0.1 1.4 0.5
v -0.6 1.4 0.3
v -0.4 1.4 0.3
v 0.1 1.4 0.3
v 0.3 1.4 0.3
v -0.6 1.4 -0.5
v -0.4 1.4 -0.5
v 0.1 1.4 -0.5
v 0.3 1.4 -0.5
v -0.4 1.4 -0.7
v 0.1 1.4 -0.7
v -0.6 1.9 0.7
v 0.3 1.9 0.7
v -0.6 1.9 0.5
v 0.3 1.9 0.5
v -0.3 2 -0.7
v 5.96046e-08 2 -0.7
v -0.3 2 -0.9
v 5.96046e-08 2 -0.9
v -0.8 2.2 0.1
v -0.6 2.2 0.1
v 0.3 2.2 0.1
v 0.5 2.2 0.1
v -0.8 2.2 0
v -0.6 2.2 0
v 0.3 2.2 0
v 0.5 2.2 0
v -0.6 2.2 0
v -0.5 2.2 0
v 0.2 2.2 0
v 0.3 2.2 0
v -0.6 2.2 -0.7
v -0.3 2.2 -0.7
v 5.96046e-08 2.2 -0.7
v 0.3 2.2 -0.7
v -0.3 2.3 -0.7
v 5.96046e-08 2.3 -0.7
v -0.3 2.3 -0.9
v 5.96046e-08 2.3 -0.9
v -0.6 2.4 0.7
v 0.3 2.4 0.7
v -0.5 2.4 0.6
v 0.2 2.4 0.6
v -0.8 2.4 0.1
v -0.6 2.4 0.1
v -0.5 2.4 0.1
v 0.2 2.4 0.1
v 0.3 2.4 0.1
v 0.5 2.4 0.1
v -0.8 2.4 0
v -0.5 2.4 0
v 0.2 2.4 0
v 0.5 2.4 0
v -0.5 2.5 0.6
v 0.2 2.5 0.6
v -0.5 2.5 0.1
v 0.2 2.5 0.1

# faces
f 3/3/1 2/3/1 1/3/1
f 4/3/1 2/3/1 3/3/1
f 9/5/1 6/5/1 5/5/1
f 10/5/1 6/5/1 9/5/1
f 11/5/1 8/5/1 7/5/1
f 12/5/1 8/5/1 11/5/1
f 13/4/1 10/4/1 9/4/1
f 14/4/1 12/4/1 11/4/1
f 16/4/1 13/4/1 9/4/1
f 16/4/1 14/4/1 13/4/1
f 17/4/1 14/4/1 16/4/1
f 18/3/1 16/3/1 15/3/1
f 18/3/1 17/3/1 16/3/1
f 19/3/1 17/3/1 18/3/1
f 20/5/1 19/5/1 18/5/1
f 21/3/1 17/3/1 19/3/1
f 21/5/1 19/5/1 20/5/1
f 22/4/1 14/4/1 17/4/1
f 22/3/1 17/3/1 21/3/1
f 23/4/1 14/4/1 22/4/1
f 24/4/1 12/4/1 14/4/1
f 24/4/1 14/4/1 23/4/1
f 25/3/1 18/3/1 15/3/1
f 25/5/1 20/5/1 18/5/1
f 26/4/1 21/4/1 20/4/1
f 26/5/1 20/5/1 25/5/1
f 27/3/1 22/3/1 21/3/1
f 27/4/1 21/4/1 26/4/1
f 28/3/1 25/3/1 15/3/1
f 28/3/1 26/3/1 25/3/1
f 28/3/1 27/3/1 26/3/1
f 29/3/1 22/3/1 27/3/1
f 29/3/1 27/3/1 28/3/1
f 32/4/1 31/4/1 30/4/1
f 33/4/1 31/4/1 32/4/1
f 36/4/1 35/4/1 34/4/1
f 37/4/1 35/4/1 36/4/1
f 38/4/1 35/4/1 37/4/1
f 43/5/1 40/5/1 39/5/1
f 44/5/1 40/5/1 43/5/1
f 45/5/1 42/5/1 41/5/1
f 46/5/1 42/5/1 45/5/1
f 47/4/1 44/4/1 43/4/1
f 48/4/1 44/4/1 47/4/1
f 49/4/1 46/4/1 45/4/1
f 50/4/1 46/4/1 49/4/1
f 51/5/2 52/5/2 55/5/2
f 55/5/2 52/5/2 56/5/2
f 53/5/2 54/5/2 57/5/2
f 57/5/2 54/5/2 58/5/2
f 55/4/2 56/4/2 59/4/2
f 59/4/2 56/4/2 60/4/2
f 57/4/2 58/4/2 61/4/2
f 61/4/2 58/4/2 62/4/2
f 63/4/2 64/4/2 65/4/2
f 65/4/2 64/4/2 66/4/2
f 66/4/2 64/4/2 67/4/2
f 68/4/2 69/4/2 70/4/2
f 70/4/2 69/4/2 71/4/2
f 72/5/2 73/5/2 76/5/2
f 76/5/2 73/5/2 77/5/2
f 74/5/2 75/5/2 78/5/2
f 78/5/2 75/5/2 79/5/2
f 76/4/2 77/4/2 80/4/2
f 78/4/2 79/4/2 81/4/2
f 76/4/2 80/4/2 83/4/2
f 80/4/2 81/4/2 83/4/2
f 83/4/2 81/4/2 84/4/2
f 82/3/2 83/3/2 85/3/2
f 83/3/2 84/3/2 85/3/2
f 85/3/2 84/3/2 86/3/2
f 85/5/2 86/5/2 87/5/2
f 86/3/2 84/3/2 88/3/2
f 87/5/2 86/5/2 88/5/2
f 84/4/2 81/4/2 89/4/2
f 88/3/2 84/3/2 89/3/2
f 89/4/2 81/4/2 90/4/2
f 81/4/2 79/4/2 91/4/2
f 90/4/2 81/4/2 91/4/2
f 82/3/2 85/3/2 92/3/2
f 85/5/2 87/5/2 92/5/2
f 87/4/2 88/4/2 93/4/2
f 92/5/2 87/5/2 93/5/2
f 88/3/2 89/3/2 94/3/2
f 93/4/2 88/4/2 94/4/2
f 82/3/2 92/3/2 95/3/2
f 92/3/2 93/3/2 95/3/2
f 93/3/2 94/3/2 95/3/2
f 94/3/2 89/3/2 96/3/2
f 95/3/2 94/3/2 96/3/2
f 97/3/2 98/3/2 99/3/2
f 99/3/2 98/3/2 100/3/2
f 103/3/3 102/3/3 101/3/3
f 104/3/3 102/3/3 103/3/3
f 105/3/3 103/3/3 101/3/3
f 105/2/3 104/2/3 103/2/3
f 106/3/3 102/3/3 104/3/3
f 106/2/3 104/2/3 105/2/3
f 107/3/3 105/3/3 101/3/3
f 107/1/3 106/1/3 105/1/3
f 108/3/3 102/3/3 106/3/3
f 108/1/3 106/1/3 107/1/3
f 109/3/3 107/3/3 101/3/3
f 109/3/3 108/3/3 107/3/3
f 110/3/3 102/3/3 108/3/3
f 110/3/3 108/3/3 109/3/3
f 111/3/3 109/3/3 101/3/3
f 111/1/3 110/1/3 109/1/3
f 112/3/3 102/3/3 110/3/3
f 112/1/3 110/1/3 111/1/3
f 113/3/3 111/3/3 101/3/3
f 113/2/3 112/2/3 111/2/3
f 114/3/3 102/3/3 112/3/3
f 114/2/3 112/2/3 113/2/3
f 115/3/3 113/3/3 101/3/3
f 115/3/3 114/3/3 113/3/3
f 116/3/3 102/3/3 114/3/3
f 116/3/3 114/3/3 115/3/3
f 119/4/3 118/4/3 117/4/3
f 120/4/3 118/4/3 119/4/3
f 124/5/3 122/5/3 121/5/3
f 125/4/3 123/4/3 122/4/3
f 125/5/3 122/5/3 124/5/3
f 126/4/3 123/4/3 125/4/3
f 129/4/3 123/4/3 126/4/3
f 130/5/3 128/5/3 127/5/3
f 131/4/3 129/4/3 128/4/3
f 131/5/3 128/5/3 130/5/3
f 132/4/3 123/4/3 129/4/3
f 132/4/3 129/4/3 131/4/3
f 135/3/3 134/3/3 133/3/3
f 136/3/3 134/3/3 135/3/3
f 139/3/3 138/3/3 137/3/3
f 140/3/3 138/3/3 139/3/3
f 144/5/3 142/5/3 141/5/3
f 145/4/3 143/4/3 142/4/3
f 145/5/3 142/5/3 144/5/3
f 146/4/3 143/4/3 145/4/3
f 150/5/3 148/5/3 147/5/3
f 151/4/3 149/4/3 148/4/3
f 151/5/3 148/5/3 150/5/3
f 152/4/3 149/4/3 151/4/3
f 155/4/3 154/4/3 153/4/3
f 156/4/3 154/4/3 155/4/3
f 157/5/4 158/5/4 160/5/4
f 158/4/4 159/4/4 161/4/4
f 160/5/4 158/5/4 161/5/4
f 161/4/4 159/4/4 162/4/4
f 163/5/4 164/5/4 166/5/4
f 164/4/4 165/4/4 167/4/4
f 166/5/4 164/5/4 167/5/4
f 167/4/4 165/4/4 168/4/4
f 169/4/4 170/4/4 171/4/4
f 171/4/4 170/4/4 172/4/4
f 173/3/4 174/3/4 175/3/4
f 175/3/4 174/3/4 176/3/4
f 176/3/4 174/3/4 177/3/4
f 176/4/4 177/4/4 178/4/4
f 178/4/4 177/4/4 179/4/4
f 178/3/4 179/3/4 180/3/4
f 180/3/4 179/3/4 181/3/4
f 181/3/4 179/3/4 182/3/4
f 183/5/4 184/5/4 186/5/4
f 184/4/4 185/4/4 187/4/4
f 186/5/4 184/5/4 187/5/4
f 187/4/4 185/4/4 188/4/4
f 188/4/4 185/4/4 189/4/4
f 189/4/4 185/4/4 190/4/4
f 188/4/4 189/4/4 191/4/4
f 188/4/4 191/4/4 195/4/4
f 191/4/4 192/4/4 195/4/4
f 193/5/4 194/5/4 196/5/4
f 194/4/4 195/4/4 197/4/4
f 196/5/4 194/5/4 197/5/4
f 195/4/4 192/4/4 198/4/4
f 197/4/4 195/4/4 198/4/4
f 199/4/4 200/4/4 201/4/4
f 201/4/4 200/4/4 202/4/4
f 207/5/5 204/5/5 203/5/5
f 208/5/5 204/5/5 207/5/5
f 209/5/5 206/5/5 205/5/5
f 210/5/5 206/5/5 209/5/5
f 215/5/5 212/5/5 211/5/5
f 216/5/5 212/5/5 215/5/5
f 217/5/5 214/5/5 213/5/5
f 218/5/5 214/5/5 217/5/5
f 222/4/5 220/4/5 219/4/5
f 223/4/5 220/4/5 222/4/5
f 225/4/5 222/4/5 221/4/5
f 225/4/5 224/4/5 223/4/5
f 225/4/5 223/4/5 222/4/5
f 226/4/5 224/4/5 225/4/5
f 227/4/5 224/4/5 226/4/5
f 228/4/5 224/4/5 227/4/5
f 229/4/5 227/4/5 226/4/5
f 230/4/5 227/4/5 229/4/5
f 233/3/5 232/3/5 231/3/5
f 234/3/5 232/3/5 233/3/5
f 237/4/5 236/4/5 235/4/5
f 238/4/5 236/4/5 237/4/5
f 243/3/5 240/3/5 239/3/5
f 244/3/5 240/3/5 243/3/5
f 245/3/5 242/3/5 241/3/5
f 246/3/5 242/3/5 245/3/5
f 247/4/6 248/4/6 251/4/6
f 249/4/6 250/4/6 251/4/6
f 248/4/6 249/4/6 251/4/6
f 251/4/6 250/4/6 252/4/6
f 252/4/6 250/4/6 253/4/6
f 253/4/6 250/4/6 254/4/6
f 255/4/6 256/4/6 257/4/6
f 257/4/6 256/4/6 258/4/6
f 259/3/6 260/3/6 261/3/6
f 261/3/6 260/3/6 262/3/6
f 259/3/6 261/3/6 264/3/6
f 264/3/6 261/3/6 265/3/6
f 262/3/6 260/3/6 266/3/6
f 266/3/6 260/3/6 267/3/6
f 264/3/6 265/3/6 269/3/6
f 263/3/6 264/3/6 269/3/6
f 265/4/6 266/4/6 270/4/6
f 269/3/6 265/3/6 270/3/6
f 267/3/6 268/3/6 271/3/6
f 270/4/6 266/4/6 271/4/6
f 266/3/6 267/3/6 271/3/6
f 271/3/6 268/3/6 272/3/6
f 273/4/6 274/4/6 275/4/6
f 275/4/6 274/4/6 276/4/6
